<?xml version="1.0" encoding="UTF-8" standalone="no"?>
<!-- Created with Inkscape (http://www.inkscape.org/) -->

<svg
   width="7.9827905mm"
   height="24.471607mm"
   viewBox="0 0 7.9827907 24.471606"
   version="1.1"
   id="svg1"
   inkscape:export-filename="N2Tank.svg"
   inkscape:export-xdpi="96"
   inkscape:export-ydpi="96"
   sodipodi:docname="Unnamed document 1"
   xml:space="preserve"
   xmlns:inkscape="http://www.inkscape.org/namespaces/inkscape"
   xmlns:sodipodi="http://sodipodi.sourceforge.net/DTD/sodipodi-0.dtd"
   xmlns="http://www.w3.org/2000/svg"
   xmlns:svg="http://www.w3.org/2000/svg"><sodipodi:namedview
     id="namedview1"
     pagecolor="#ffffff"
     bordercolor="#000000"
     borderopacity="0.25"
     inkscape:showpageshadow="2"
     inkscape:pageopacity="0.0"
     inkscape:pagecheckerboard="false"
     inkscape:deskcolor="#d1d1d1"
     inkscape:document-units="mm"
     showguides="true"
     inkscape:zoom="1.0926882"
     inkscape:cx="239.77563"
     inkscape:cy="359.20586"
     inkscape:window-width="1920"
     inkscape:window-height="1009"
     inkscape:window-x="-8"
     inkscape:window-y="-8"
     inkscape:window-maximized="1"
     inkscape:current-layer="layer1"><inkscape:page
       x="0"
       y="0"
       width="7.9827905"
       height="24.471607"
       id="page2"
       margin="0"
       bleed="0" /></sodipodi:namedview><defs
     id="defs1" /><g
     id="g41"
     inkscape:label="Fills"
     transform="translate(-5.13425,-24.270253)"><path
       style="fill:#999999;fill-opacity:1;stroke:none;stroke-width:0.114397;stroke-opacity:1"
       d="m 20.419823,135.27418 v -29.62876 h 14.070803 14.070803 v 29.62876 29.62876 H 34.490626 20.419823 Z"
       id="path23"
       transform="scale(0.26458333)" /><path
       style="fill:#999999;fill-opacity:1;stroke:#999999;stroke-width:0.0444315;stroke-opacity:1"
       d="m 5.6453278,27.653774 c 0,-0.04274 0.8328502,-0.544073 1.1646159,-0.701048 0.4794852,-0.226869 1.1125896,-0.428243 1.5524018,-0.493785 0.5546946,-0.08266 1.4700189,-0.03474 1.9853935,0.103951 0.654335,0.17608 1.704592,0.680295 2.099489,1.007935 l 0.119873,0.09946 -3.4608866,0.0017 c -1.9034877,8.32e-4 -3.4608866,-0.0073 -3.4608866,-0.01814 z"
       id="path39" /><path
       style="fill:#999999;fill-opacity:1;stroke:#999999;stroke-width:0.043818;stroke-opacity:1"
       d="M 8.2704517,44.98127 C 7.5724321,44.866142 6.6618354,44.515561 5.9694268,44.09537 l -0.2870941,-0.174226 3.4451285,0.0011 3.4451288,0.0011 -0.242927,0.155814 c -0.357964,0.229599 -1.070598,0.558975 -1.523807,0.704299 -0.8104519,0.259873 -1.7260895,0.331321 -2.5354043,0.197836 z"
       id="path40" /><path
       style="fill:#1a1a1a;fill-opacity:1;stroke:#000000;stroke-width:0.264583;stroke-opacity:1"
       d="M 9.1256452,26.271371 V 24.270253"
       id="path41" /></g><rect
     style="fill:none;stroke:#000000;stroke-width:0.264583;stroke-opacity:1"
     id="rect1"
     width="7.7182074"
     height="15.95096"
     x="0.1322915"
     y="3.5455601"
     ry="0.0012835566" /><rect
     style="fill:none;stroke:#000000;stroke-width:0.264583;stroke-opacity:1"
     id="rect2"
     width="7.7182074"
     height="4.8427968"
     x="0.1322915"
     y="19.496521"
     ry="0" /><path
     style="fill:none;stroke:#000000;stroke-width:0.264583;stroke-opacity:1"
     d="M 0.13229151,3.545559 C 2.705027,1.527727 5.277763,1.527727 7.850499,3.545559"
     id="path3"
     sodipodi:nodetypes="cc" /><path
     style="fill:none;stroke:#000000;stroke-width:0.264583;stroke-opacity:1"
     d="m 0.13229151,19.496521 c 2.57273579,1.92621 5.14547149,1.92621 7.71820749,-1e-6"
     id="path1"
     inkscape:label="path1"
     sodipodi:nodetypes="cc" /></svg>
