<?xml version="1.0" encoding="UTF-8" standalone="no"?>
<!-- Created with Inkscape (http://www.inkscape.org/) -->

<svg
   width="7.9827905mm"
   height="24.471607mm"
   viewBox="0 0 7.9827907 24.471606"
   version="1.1"
   id="svg1"
   inkscape:export-filename="N2Tank.svg"
   inkscape:export-xdpi="96"
   inkscape:export-ydpi="96"
   sodipodi:docname="Unnamed document 1"
   xml:space="preserve"
   xmlns:inkscape="http://www.inkscape.org/namespaces/inkscape"
   xmlns:sodipodi="http://sodipodi.sourceforge.net/DTD/sodipodi-0.dtd"
   xmlns="http://www.w3.org/2000/svg"
   xmlns:svg="http://www.w3.org/2000/svg"><sodipodi:namedview
     id="namedview1"
     pagecolor="#ffffff"
     bordercolor="#000000"
     borderopacity="0.25"
     inkscape:showpageshadow="2"
     inkscape:pageopacity="0.0"
     inkscape:pagecheckerboard="false"
     inkscape:deskcolor="#d1d1d1"
     inkscape:document-units="mm"
     showguides="true"
     inkscape:zoom="1.0926882"
     inkscape:cx="239.77563"
     inkscape:cy="359.20586"
     inkscape:window-width="1920"
     inkscape:window-height="1009"
     inkscape:window-x="-8"
     inkscape:window-y="-8"
     inkscape:window-maximized="1"
     inkscape:current-layer="layer1"><inkscape:page
       x="0"
       y="0"
       width="7.9827905"
       height="24.471607"
       id="page2"
       margin="0"
       bleed="0" /></sodipodi:namedview><defs
     id="defs1" /><g
     id="g41"
     inkscape:label="Fills"
     transform="translate(-5.13425,-24.270253)"
     style="fill:#00ffff;fill-opacity:1;stroke:none"><path
       style="fill:#00ffff;fill-opacity:1;stroke:none;stroke-width:0.114397;stroke-opacity:1"
       d="m 20.419823,135.27418 v -29.62876 h 14.070803 14.070803 v 29.62876 29.62876 H 34.490626 20.419823 Z"
       id="path23"
       transform="scale(0.26458333)" /><path
       style="fill:#00ffff;fill-opacity:1;stroke:none;stroke-width:0.0475695;stroke-opacity:1"
       d="m 5.5391445,27.784845 c 0,-0.04727 0.8630788,-0.601795 1.2068862,-0.775424 0.4968883,-0.250938 1.1529714,-0.473676 1.6087468,-0.546172 0.5748275,-0.09143 1.5233739,-0.03843 2.0574545,0.11498 0.678084,0.19476 1.76646,0.752469 2.175691,1.114869 l 0.124223,0.110012 -3.5865005,0.0019 c -1.9725757,9.2e-4 -3.586501,-0.0081 -3.586501,-0.02006 z"
       id="path39"
       inkscape:label="path39" /><path
       style="fill:#00ffff;fill-opacity:1;stroke:none;stroke-width:0.0521073;stroke-opacity:1"
       d="M 8.1995371,45.152836 C 7.445238,45.002177 6.4612222,44.543395 5.7129866,43.99352 l -0.3102418,-0.227998 3.7229003,0.0015 3.7229009,0.0015 -0.262514,0.203904 c -0.386826,0.30046 -1.156917,0.731493 -1.646667,0.921668 -0.875797,0.340078 -1.8652601,0.433577 -2.7398279,0.258895 z"
       id="path40" /></g><rect
     style="fill:none;stroke:#000000;stroke-width:0.264583;stroke-opacity:1"
     id="rect1"
     width="7.7182074"
     height="15.95096"
     x="0.1322915"
     y="3.5455601"
     ry="0.0012835566"
     inkscape:label="Bottom" /><rect
     style="fill:none;stroke:#000000;stroke-width:0.264583;stroke-opacity:1"
     id="rect2"
     width="7.7182074"
     height="4.8427968"
     x="0.1322915"
     y="19.496521"
     ry="0"
     inkscape:label="Body" /><path
     style="fill:#1a1a1a;fill-opacity:1;stroke:#000000;stroke-width:0.264583;stroke-opacity:1"
     d="M 3.9913953,2.001118 V 0"
     id="path41"
     inkscape:label="Exit Port" /><path
     style="fill:none;stroke:#000000;stroke-width:0.264583;stroke-opacity:1"
     d="M 0.13229151,3.545559 C 2.705027,1.527727 5.277763,1.527727 7.850499,3.545559"
     id="path3"
     sodipodi:nodetypes="cc"
     inkscape:label="Top rounding" /><path
     style="fill:none;stroke:#000000;stroke-width:0.264583;stroke-opacity:1"
     d="m 0.13229151,19.496521 c 2.57273579,1.92621 5.14547149,1.92621 7.71820749,-1e-6"
     id="path1"
     inkscape:label="Bottom Rounding"
     sodipodi:nodetypes="cc" /></svg>
